  0
SECTION
  2
HEADER
  9
$ACADVER
  1
AC1006
  9
$EXTMIN
 10
0.000000
 20
0.000000
 30
0.000000
  9
$EXTMAX
 10
450.000000
 20
379.000000
 30
0.000000
  0
ENDSEC
  0
SECTION
  2
ENTITIES
  0
POLYLINE
  8
0
 66
1
 70
1
  0
VERTEX
  8
0
 10
165.500000
 20
359.956434
 42
0.005833
  0
VERTEX
  8
0
 10
152.050692
 20
358.905766
 42
0.004420
  0
VERTEX
  8
0
 10
137.321824
 20
357.450737
 42
0.004421
  0
VERTEX
  8
0
 10
123.668655
 20
355.857748
 42
0.011885
  0
VERTEX
  8
0
 10
114.000000
 20
354.408733
 42
0.037288
  0
VERTEX
  8
0
 10
95.800923
 20
349.818490
 42
0.063330
  0
VERTEX
  8
0
 10
81.668803
 20
343.024908
 42
0.071952
  0
VERTEX
  8
0
 10
70.932747
 20
333.641822
 42
0.065996
  0
VERTEX
  8
0
 10
62.922433
 20
321.337472
 42
0.067853
  0
VERTEX
  8
0
 10
57.736507
 20
305.136257
 42
0.027404
  0
VERTEX
  8
0
 10
54.963462
 20
282.040605
 42
0.022041
  0
VERTEX
  8
0
 10
54.352832
 20
252.439044
 42
0.011435
  0
VERTEX
  8
0
 10
56.065068
 20
215.500000
 42
0.009739
  0
VERTEX
  8
0
 10
57.990750
 20
193.838627
 42
0.011853
  0
VERTEX
  8
0
 10
60.668167
 20
173.649605
 42
0.013001
  0
VERTEX
  8
0
 10
63.931132
 20
155.875057
 42
0.024023
  0
VERTEX
  8
0
 10
67.643234
 20
141.669054
 42
0.071104
  0
VERTEX
  8
0
 10
77.490077
 20
121.053189
 42
0.102901
  0
VERTEX
  8
0
 10
91.821823
 20
106.927685
 42
0.084973
  0
VERTEX
  8
0
 10
112.746260
 20
97.993766
 42
0.035872
  0
VERTEX
  8
0
 10
143.000000
 20
93.040680
 42
0.016394
  0
VERTEX
  8
0
 10
186.459553
 20
90.526724
 42
0.009112
  0
VERTEX
  8
0
 10
239.538967
 20
90.167179
 42
0.008688
  0
VERTEX
  8
0
 10
290.042827
 20
91.623404
 42
0.030200
  0
VERTEX
  8
0
 10
322.500000
 20
95.095959
 42
0.021059
  0
VERTEX
  8
0
 10
330.086778
 20
96.705702
 42
0.015847
  0
VERTEX
  8
0
 10
338.277904
 20
99.086656
 42
0.016127
  0
VERTEX
  8
0
 10
345.976744
 20
101.869253
 42
0.029767
  0
VERTEX
  8
0
 10
352.000000
 20
104.694501
 42
0.068114
  0
VERTEX
  8
0
 10
364.430781
 20
113.836683
 42
0.073842
  0
VERTEX
  8
0
 10
373.555634
 20
125.759489
 42
0.057123
  0
VERTEX
  8
0
 10
380.392607
 20
142.312195
 42
0.023446
  0
VERTEX
  8
0
 10
385.956259
 20
166.000000
 42
0.023340
  0
VERTEX
  8
0
 10
390.661225
 20
200.093133
 42
0.014499
  0
VERTEX
  8
0
 10
393.142708
 20
240.412069
 42
0.014066
  0
VERTEX
  8
0
 10
393.308005
 20
278.486918
 42
0.045006
  0
VERTEX
  8
0
 10
390.428938
 20
303.690316
 42
0.017370
  0
VERTEX
  8
0
 10
388.601967
 20
311.207174
 42
0.026230
  0
VERTEX
  8
0
 10
386.447382
 20
317.588734
 42
0.027783
  0
VERTEX
  8
0
 10
383.742592
 20
323.430652
 42
0.023306
  0
VERTEX
  8
0
 10
380.257215
 20
329.301370
 42
0.037096
  0
VERTEX
  8
0
 10
376.008178
 20
334.815615
 42
0.039978
  0
VERTEX
  8
0
 10
371.088115
 20
339.493732
 42
0.037232
  0
VERTEX
  8
0
 10
365.176051
 20
343.589394
 42
0.025560
  0
VERTEX
  8
0
 10
357.937990
 20
347.360503
 42
0.033238
  0
VERTEX
  8
0
 10
348.344364
 20
351.001781
 42
0.026166
  0
VERTEX
  8
0
 10
337.555947
 20
353.687485
 42
0.017269
  0
VERTEX
  8
0
 10
322.923073
 20
356.005860
 42
0.004887
  0
VERTEX
  8
0
 10
300.000000
 20
358.603134
 42
0.020840
  0
VERTEX
  8
0
 10
279.752984
 20
359.847370
 42
0.002410
  0
VERTEX
  8
0
 10
234.241451
 20
360.524701
 42
0.002673
  0
VERTEX
  8
0
 10
188.867796
 20
360.738687
 42
0.016418
  0
SEQEND
  0
POLYLINE
  8
0
 66
1
 70
1
  0
VERTEX
  8
0
 10
287.981993
 20
344.075593
 42
-0.006931
  0
VERTEX
  8
0
 10
291.285707
 20
343.585015
 42
-0.010006
  0
VERTEX
  8
0
 10
294.190631
 20
343.052535
 42
-0.006125
  0
VERTEX
  8
0
 10
296.597130
 20
342.530667
 42
-0.140819
  0
VERTEX
  8
0
 10
297.206896
 20
342.193104
 42
-0.266222
  0
VERTEX
  8
0
 10
297.567420
 20
340.864759
 42
-0.000126
  0
VERTEX
  8
0
 10
285.835180
 20
295.968552
 42
-0.001412
  0
VERTEX
  8
0
 10
275.294412
 20
256.133089
 42
-0.013900
  0
VERTEX
  8
0
 10
270.343542
 20
239.500000
 42
-0.025787
  0
VERTEX
  8
0
 10
265.792145
 20
227.718737
 42
-0.044047
  0
VERTEX
  8
0
 10
260.663427
 20
218.512285
 42
-0.052542
  0
VERTEX
  8
0
 10
254.794300
 20
211.562355
 42
-0.066622
  0
VERTEX
  8
0
 10
248.018097
 20
206.606366
 42
-0.086330
  0
VERTEX
  8
0
 10
238.211017
 20
203.288790
 42
-0.037023
  0
VERTEX
  8
0
 10
224.382665
 20
202.180793
 42
-0.037052
  0
VERTEX
  8
0
 10
210.469557
 20
203.130149
 42
-0.081888
  0
VERTEX
  8
0
 10
200.349034
 20
206.323131
 42
-0.080381
  0
VERTEX
  8
0
 10
192.622399
 20
211.950112
 42
-0.059604
  0
VERTEX
  8
0
 10
186.119289
 20
220.296950
 42
-0.044388
  0
VERTEX
  8
0
 10
180.299320
 20
232.220512
 42
-0.019082
  0
VERTEX
  8
0
 10
174.604180
 20
249.000000
 42
-0.007710
  0
VERTEX
  8
0
 10
168.589471
 20
270.429605
 42
-0.002226
  0
VERTEX
  8
0
 10
159.955406
 20
303.720304
 42
-0.000182
  0
VERTEX
  8
0
 10
150.494936
 20
340.933999
 42
-0.264411
  0
VERTEX
  8
0
 10
150.859512
 20
342.259512
 42
-0.154874
  0
VERTEX
  8
0
 10
151.601748
 20
342.644130
 42
-0.003883
  0
VERTEX
  8
0
 10
155.399431
 20
343.268766
 42
-0.007981
  0
VERTEX
  8
0
 10
159.915201
 20
343.901868
 42
-0.005312
  0
VERTEX
  8
0
 10
165.109005
 20
344.489720
 42
-0.023823
  0
VERTEX
  8
0
 10
183.935655
 20
345.515708
 42
-0.002544
  0
VERTEX
  8
0
 10
227.737529
 20
345.590957
 42
-0.002217
  0
VERTEX
  8
0
 10
271.956255
 20
345.245868
 42
-0.030338
  0
SEQEND
  0
POLYLINE
  8
0
 66
1
 70
1
  0
VERTEX
  8
0
 10
119.428571
 20
337.428571
 42
-0.122233
  0
VERTEX
  8
0
 10
120.211522
 20
336.128723
 42
-0.042643
  0
VERTEX
  8
0
 10
120.677990
 20
333.978652
 42
-0.025545
  0
VERTEX
  8
0
 10
120.935814
 20
330.651244
 42
-0.006322
  0
VERTEX
  8
0
 10
121.010287
 20
325.178571
 42
0.013281
  0
VERTEX
  8
0
 10
122.040993
 20
287.739017
 42
0.004053
  0
VERTEX
  8
0
 10
125.563007
 20
231.177578
 42
0.004165
  0
VERTEX
  8
0
 10
130.078075
 20
173.870369
 42
0.010712
  0
VERTEX
  8
0
 10
134.572419
 20
132.563580
 42
-0.004985
  0
VERTEX
  8
0
 10
135.118914
 20
128.024883
 42
-0.004840
  0
VERTEX
  8
0
 10
135.580648
 20
123.431341
 42
-0.004783
  0
VERTEX
  8
0
 10
135.908891
 20
119.384645
 42
-0.017845
  0
VERTEX
  8
0
 10
136.000000
 20
116.832632
 42
-0.014216
  0
VERTEX
  8
0
 10
135.920805
 20
114.047684
 42
-0.095901
  0
VERTEX
  8
0
 10
135.583384
 20
112.715549
 42
-0.161043
  0
VERTEX
  8
0
 10
134.848257
 20
111.939982
 42
-0.061807
  0
VERTEX
  8
0
 10
133.445714
 20
111.397019
 42
-0.080383
  0
VERTEX
  8
0
 10
129.856866
 20
111.089485
 42
-0.049315
  0
VERTEX
  8
0
 10
125.666091
 20
111.823924
 42
-0.034391
  0
VERTEX
  8
0
 10
120.353409
 20
113.707976
 42
-0.012588
  0
VERTEX
  8
0
 10
113.119096
 20
117.067255
 42
-0.034573
  0
VERTEX
  8
0
 10
102.731813
 20
123.139663
 42
-0.070896
  0
VERTEX
  8
0
 10
95.781471
 20
129.482037
 42
-0.069768
  0
VERTEX
  8
0
 10
90.812381
 20
137.582509
 42
-0.032567
  0
VERTEX
  8
0
 10
86.629345
 20
149.192535
 42
-0.039860
  0
VERTEX
  8
0
 10
81.809895
 20
172.842743
 42
-0.011775
  0
VERTEX
  8
0
 10
78.197224
 20
209.664098
 42
-0.012283
  0
VERTEX
  8
0
 10
76.264950
 20
248.520583
 42
-0.021773
  0
VERTEX
  8
0
 10
76.855470
 20
280.582648
 42
-0.008950
  0
VERTEX
  8
0
 10
77.883771
 20
293.432323
 42
-0.025511
  0
VERTEX
  8
0
 10
79.213511
 20
302.304706
 42
-0.033736
  0
VERTEX
  8
0
 10
81.178008
 20
309.480352
 42
-0.030070
  0
VERTEX
  8
0
 10
84.151755
 20
316.617317
 42
-0.047670
  0
VERTEX
  8
0
 10
88.262116
 20
323.318757
 42
-0.065572
  0
VERTEX
  8
0
 10
93.207856
 20
328.354250
 42
-0.055789
  0
VERTEX
  8
0
 10
99.902164
 20
332.476747
 42
-0.024697
  0
VERTEX
  8
0
 10
109.512456
 20
336.439763
 42
-0.002827
  0
VERTEX
  8
0
 10
115.130540
 20
338.402399
 42
-0.057826
  0
VERTEX
  8
0
 10
116.883691
 20
338.785083
 42
-0.164669
  0
VERTEX
  8
0
 10
118.056734
 20
338.514107
 42
-0.058057
  0
SEQEND
  0
POLYLINE
  8
0
 66
1
 70
1
  0
VERTEX
  8
0
 10
337.838754
 20
336.554843
 42
-0.026088
  0
VERTEX
  8
0
 10
347.615668
 20
332.649695
 42
-0.058668
  0
VERTEX
  8
0
 10
354.416004
 20
328.486220
 42
-0.066495
  0
VERTEX
  8
0
 10
359.539845
 20
323.217167
 42
-0.042815
  0
VERTEX
  8
0
 10
364.021845
 20
315.956725
 42
-0.040398
  0
VERTEX
  8
0
 10
367.733095
 20
306.843421
 42
-0.050762
  0
VERTEX
  8
0
 10
369.583999
 20
297.920780
 42
-0.023358
  0
VERTEX
  8
0
 10
370.339544
 20
284.537145
 42
-0.002514
  0
VERTEX
  8
0
 10
370.484107
 20
253.500000
 42
-0.004531
  0
VERTEX
  8
0
 10
370.199640
 20
223.339082
 42
-0.013021
  0
VERTEX
  8
0
 10
369.267713
 20
202.426170
 42
-0.015487
  0
VERTEX
  8
0
 10
367.358460
 20
183.688819
 42
-0.009053
  0
VERTEX
  8
0
 10
363.971760
 20
161.374520
 42
-0.027054
  0
VERTEX
  8
0
 10
360.971070
 20
148.131504
 42
-0.043082
  0
VERTEX
  8
0
 10
356.849471
 20
137.281368
 42
-0.051405
  0
VERTEX
  8
0
 10
351.667954
 20
128.865251
 42
-0.078556
  0
VERTEX
  8
0
 10
345.463221
 20
122.974696
 42
-0.035447
  0
VERTEX
  8
0
 10
336.383348
 20
117.632984
 42
-0.032825
  0
VERTEX
  8
0
 10
326.407775
 20
113.470755
 42
-0.030602
  0
VERTEX
  8
0
 10
317.483228
 20
111.015521
 42
-0.203188
  0
VERTEX
  8
0
 10
313.049904
 20
111.884857
 42
-0.207310
  0
VERTEX
  8
0
 10
312.030342
 20
113.484598
 42
-0.047879
  0
VERTEX
  8
0
 10
311.824866
 20
116.746864
 42
-0.018685
  0
VERTEX
  8
0
 10
312.250155
 20
122.799751
 42
-0.001788
  0
VERTEX
  8
0
 10
313.889925
 20
137.500000
 42
0.006156
  0
VERTEX
  8
0
 10
318.125746
 20
178.739974
 42
0.004562
  0
VERTEX
  8
0
 10
321.829963
 20
224.417757
 42
0.004514
  0
VERTEX
  8
0
 10
324.747018
 20
270.832222
 42
0.005501
  0
VERTEX
  8
0
 10
326.606978
 20
314.328526
 42
-0.002778
  0
VERTEX
  8
0
 10
327.017055
 20
325.320383
 42
-0.011962
  0
VERTEX
  8
0
 10
327.453677
 20
331.849887
 42
-0.014601
  0
VERTEX
  8
0
 10
327.962621
 20
336.074550
 42
-0.160432
  0
VERTEX
  8
0
 10
328.721383
 20
337.578526
 42
-0.040220
  0
VERTEX
  8
0
 10
329.898487
 20
338.580094
 42
-0.186212
  0
VERTEX
  8
0
 10
330.747206
 20
338.802601
 42
-0.052879
  0
VERTEX
  8
0
 10
331.996559
 20
338.526538
 42
-0.001179
  0
SEQEND
  0
POLYLINE
  8
0
 66
1
 70
1
  0
VERTEX
  8
0
 10
247.275000
 20
164.461814
 42
-0.061013
  0
VERTEX
  8
0
 10
252.708470
 20
162.055813
 42
-0.100883
  0
VERTEX
  8
0
 10
256.400952
 20
158.685466
 42
-0.065927
  0
VERTEX
  8
0
 10
259.424707
 20
153.127120
 42
-0.014456
  0
VERTEX
  8
0
 10
263.036812
 20
142.839136
 42
-0.000456
  0
VERTEX
  8
0
 10
270.632300
 20
118.949430
 42
-0.012310
  0
VERTEX
  8
0
 10
272.482889
 20
112.569143
 42
-0.050672
  0
VERTEX
  8
0
 10
272.977604
 20
109.432333
 42
-0.237637
  0
VERTEX
  8
0
 10
272.268900
 20
107.808204
 42
-0.170878
  0
VERTEX
  8
0
 10
269.300533
 20
106.710392
 42
-0.000741
  0
VERTEX
  8
0
 10
234.692459
 20
106.216591
 42
-0.003595
  0
VERTEX
  8
0
 10
203.210350
 20
106.040393
 42
-0.017783
  0
VERTEX
  8
0
 10
185.500000
 20
106.698712
 42
-0.003037
  0
VERTEX
  8
0
 10
178.310066
 20
107.266388
 42
-0.051318
  0
VERTEX
  8
0
 10
175.973970
 20
107.709399
 42
-0.205821
  0
VERTEX
  8
0
 10
175.017932
 20
108.508033
 42
-0.145724
  0
VERTEX
  8
0
 10
174.765082
 20
109.901660
 42
-0.044199
  0
VERTEX
  8
0
 10
175.101437
 20
111.575830
 42
-0.001504
  0
VERTEX
  8
0
 10
177.019103
 20
118.011055
 42
-0.002821
  0
VERTEX
  8
0
 10
179.351134
 20
125.596419
 42
-0.001963
  0
VERTEX
  8
0
 10
182.066101
 20
134.135568
 42
-0.007676
  0
VERTEX
  8
0
 10
188.134870
 20
152.021450
 42
-0.074531
  0
VERTEX
  8
0
 10
191.899965
 20
159.059013
 42
-0.134933
  0
VERTEX
  8
0
 10
196.773005
 20
162.860642
 42
-0.044714
  0
VERTEX
  8
0
 10
205.500000
 20
165.607103
 42
-0.047271
  0
VERTEX
  8
0
 10
213.780718
 20
166.614455
 42
-0.013499
  0
VERTEX
  8
0
 10
226.737516
 20
166.609109
 42
-0.013151
  0
VERTEX
  8
0
 10
239.602454
 20
165.917487
 42
-0.053796
  0
SEQEND
  0
POLYLINE
  8
0
 66
1
 70
1
  0
VERTEX
  8
0
 10
127.000000
 20
67.934170
 42
0.035451
  0
VERTEX
  8
0
 10
118.600584
 20
66.062785
 42
0.053575
  0
VERTEX
  8
0
 10
111.697528
 20
63.167480
 42
0.061443
  0
VERTEX
  8
0
 10
106.290223
 20
59.250406
 42
0.072893
  0
VERTEX
  8
0
 10
102.349394
 20
54.333222
 42
0.025629
  0
VERTEX
  8
0
 10
100.939126
 20
51.616692
 42
0.046944
  0
VERTEX
  8
0
 10
100.122437
 20
49.261446
 42
0.042565
  0
VERTEX
  8
0
 10
99.713789
 20
46.644131
 42
0.017453
  0
VERTEX
  8
0
 10
99.588235
 20
43.048232
 42
0.049754
  0
VERTEX
  8
0
 10
100.177520
 20
37.140874
 42
0.070506
  0
VERTEX
  8
0
 10
101.934917
 20
32.166943
 42
0.071682
  0
VERTEX
  8
0
 10
104.977785
 20
27.936345
 42
0.053492
  0
VERTEX
  8
0
 10
109.389151
 20
24.241289
 42
0.041156
  0
VERTEX
  8
0
 10
115.410461
 20
20.888092
 42
0.051530
  0
VERTEX
  8
0
 10
121.470399
 20
18.860486
 42
0.040320
  0
VERTEX
  8
0
 10
128.906655
 20
17.817725
 42
0.014871
  0
VERTEX
  8
0
 10
139.500000
 20
17.510628
 42
0.018863
  0
VERTEX
  8
0
 10
151.111706
 20
17.957679
 42
0.044272
  0
VERTEX
  8
0
 10
159.667819
 20
19.379654
 42
0.057150
  0
VERTEX
  8
0
 10
166.398180
 20
21.969620
 42
0.060138
  0
VERTEX
  8
0
 10
172.242049
 20
25.981857
 42
0.096793
  0
VERTEX
  8
0
 10
177.627118
 20
32.977697
 42
0.099155
  0
VERTEX
  8
0
 10
179.923423
 20
41.426649
 42
0.098870
  0
VERTEX
  8
0
 10
178.791227
 20
50.128205
 42
0.095655
  0
VERTEX
  8
0
 10
174.402719
 20
57.842616
 42
0.110454
  0
VERTEX
  8
0
 10
166.848698
 20
63.500271
 42
0.053316
  0
VERTEX
  8
0
 10
155.301523
 20
67.279377
 42
0.047630
  0
VERTEX
  8
0
 10
141.483840
 20
68.869427
 42
0.041957
  0
SEQEND
  0
POLYLINE
  8
0
 66
1
 70
1
  0
VERTEX
  8
0
 10
150.810176
 20
56.974365
 42
-0.084611
  0
VERTEX
  8
0
 10
153.726894
 20
54.435088
 42
-0.080261
  0
VERTEX
  8
0
 10
155.701984
 20
51.028854
 42
-0.067751
  0
VERTEX
  8
0
 10
156.722576
 20
46.669885
 42
-0.039592
  0
VERTEX
  8
0
 10
156.806157
 20
41.296700
 42
-0.066887
  0
VERTEX
  8
0
 10
155.432117
 20
34.418241
 42
-0.134540
  0
VERTEX
  8
0
 10
152.339310
 20
29.880130
 42
-0.124880
  0
VERTEX
  8
0
 10
147.184085
 20
27.347551
 42
-0.053590
  0
VERTEX
  8
0
 10
139.500000
 20
26.568160
 42
-0.049933
  0
VERTEX
  8
0
 10
131.912112
 20
27.373802
 42
-0.120885
  0
VERTEX
  8
0
 10
126.860759
 20
29.790034
 42
-0.132884
  0
VERTEX
  8
0
 10
123.787488
 20
34.096622
 42
-0.066387
  0
VERTEX
  8
0
 10
122.295833
 20
40.674123
 42
-0.050720
  0
VERTEX
  8
0
 10
122.356175
 20
46.197579
 42
-0.069347
  0
VERTEX
  8
0
 10
123.589076
 20
51.010962
 42
-0.079701
  0
VERTEX
  8
0
 10
125.895461
 20
54.787275
 42
-0.101782
  0
VERTEX
  8
0
 10
129.108124
 20
57.283614
 42
-0.082732
  0
VERTEX
  8
0
 10
133.752793
 20
58.682929
 42
-0.035461
  0
VERTEX
  8
0
 10
140.241793
 20
59.050888
 42
-0.035181
  0
VERTEX
  8
0
 10
146.618346
 20
58.510260
 42
-0.098465
  0
SEQEND
  0
POLYLINE
  8
0
 66
1
 70
1
  0
VERTEX
  8
0
 10
8.000000
 20
63.500000
 42
0.021685
  0
VERTEX
  8
0
 10
8.090901
 20
61.405089
 42
0.166379
  0
VERTEX
  8
0
 10
8.483237
 20
60.518132
 42
0.180477
  0
VERTEX
  8
0
 10
9.319689
 20
60.095886
 42
0.026422
  0
VERTEX
  8
0
 10
11.250000
 20
59.984687
 42
-0.080221
  0
VERTEX
  8
0
 10
14.681311
 20
59.413995
 42
-0.231676
  0
VERTEX
  8
0
 10
16.347900
 20
57.764549
 42
-0.078976
  0
VERTEX
  8
0
 10
17.004767
 20
54.105429
 42
-0.004999
  0
VERTEX
  8
0
 10
17.114286
 20
43.152634
 42
-0.003793
  0
VERTEX
  8
0
 10
17.069672
 20
37.271184
 42
-0.005738
  0
VERTEX
  8
0
 10
16.933289
 20
32.153944
 42
-0.002440
  0
VERTEX
  8
0
 10
16.745755
 20
27.795429
 42
-0.127101
  0
VERTEX
  8
0
 10
16.498126
 20
26.996968
 42
-0.128002
  0
VERTEX
  8
0
 10
16.097054
 20
26.613777
 42
-0.046199
  0
VERTEX
  8
0
 10
15.369949
 20
26.292859
 42
-0.042094
  0
VERTEX
  8
0
 10
14.471001
 20
26.073654
 42
-0.038779
  0
VERTEX
  8
0
 10
13.522770
 20
26.000000
 42
0.040237
  0
VERTEX
  8
0
 10
10.884243
 20
25.787322
 42
0.120214
  0
VERTEX
  8
0
 10
9.228005
 20
25.086798
 42
0.153506
  0
VERTEX
  8
0
 10
8.313746
 20
23.824240
 42
0.080701
  0
VERTEX
  8
0
 10
8.000000
 20
21.893011
 42
0.000000
  0
VERTEX
  8
0
 10
8.000000
 20
19.000000
 42
0.000000
  0
VERTEX
  8
0
 10
27.563358
 20
19.000000
 42
0.000000
  0
VERTEX
  8
0
 10
47.126717
 20
19.000000
 42
0.000000
  0
VERTEX
  8
0
 10
46.813358
 20
22.250000
 42
0.033130
  0
VERTEX
  8
0
 10
46.506433
 20
24.123814
 42
0.158354
  0
VERTEX
  8
0
 10
45.953942
 20
25.039910
 42
0.136448
  0
VERTEX
  8
0
 10
44.920169
 20
25.530114
 42
0.022325
  0
VERTEX
  8
0
 10
42.701192
 20
25.813275
 42
-0.029240
  0
VERTEX
  8
0
 10
40.724857
 20
26.093284
 42
-0.087981
  0
VERTEX
  8
0
 10
39.462067
 20
26.589939
 42
-0.107594
  0
VERTEX
  8
0
 10
38.591798
 20
27.424725
 42
-0.057193
  0
VERTEX
  8
0
 10
37.902283
 20
28.757015
 42
-0.038341
  0
VERTEX
  8
0
 10
37.540230
 20
29.985164
 42
-0.021840
  0
VERTEX
  8
0
 10
37.283766
 20
31.512557
 42
-0.021710
  0
VERTEX
  8
0
 10
37.159107
 20
33.081838
 42
-0.033350
  0
VERTEX
  8
0
 10
37.201091
 20
34.443740
 42
0.000000
  0
VERTEX
  8
0
 10
37.500000
 20
37.500000
 42
0.000000
  0
VERTEX
  8
0
 10
52.750000
 20
37.776046
 42
0.000000
  0
VERTEX
  8
0
 10
68.000000
 20
38.052092
 42
0.000000
  0
VERTEX
  8
0
 10
68.000000
 20
33.960305
 42
-0.036007
  0
VERTEX
  8
0
 10
67.714521
 20
30.001241
 42
-0.126858
  0
VERTEX
  8
0
 10
66.737141
 20
27.665689
 42
-0.161925
  0
VERTEX
  8
0
 10
64.913830
 20
26.415533
 42
-0.070107
  0
VERTEX
  8
0
 10
61.964816
 20
26.000000
 42
0.016167
  0
VERTEX
  8
0
 10
59.471594
 20
25.919364
 42
0.166141
  0
VERTEX
  8
0
 10
58.533201
 20
25.529309
 42
0.191487
  0
VERTEX
  8
0
 10
58.098684
 20
24.672188
 42
0.022704
  0
VERTEX
  8
0
 10
58.000000
 20
22.500000
 42
0.000000
  0
VERTEX
  8
0
 10
58.000000
 20
19.000000
 42
0.000000
  0
VERTEX
  8
0
 10
77.440983
 20
19.000000
 42
0.003638
  0
VERTEX
  8
0
 10
84.927546
 20
19.054473
 42
0.005847
  0
VERTEX
  8
0
 10
91.308372
 20
19.221986
 42
0.001604
  0
VERTEX
  8
0
 10
96.826854
 20
19.449201
 42
0.248128
  0
VERTEX
  8
0
 10
97.349013
 20
19.755697
 42
0.119965
  0
VERTEX
  8
0
 10
97.498531
 20
20.214890
 42
0.023114
  0
VERTEX
  8
0
 10
97.524761
 20
21.095547
 42
0.023403
  0
VERTEX
  8
0
 10
97.458009
 20
22.149632
 42
0.019713
  0
VERTEX
  8
0
 10
97.291452
 20
23.255697
 42
0.043859
  0
VERTEX
  8
0
 10
96.894494
 20
24.654332
 42
0.129914
  0
VERTEX
  8
0
 10
96.317384
 20
25.458303
 42
0.129625
  0
VERTEX
  8
0
 10
95.417559
 20
25.873178
 42
0.043578
  0
VERTEX
  8
0
 10
93.965210
 20
26.000000
 42
-0.069472
  0
VERTEX
  8
0
 10
90.366912
 20
26.502385
 42
-0.244052
  0
VERTEX
  8
0
 10
88.718234
 20
28.057453
 42
-0.080017
  0
VERTEX
  8
0
 10
88.094989
 20
31.558525
 42
-0.004119
  0
VERTEX
  8
0
 10
88.000000
 20
43.087937
 42
-0.003103
  0
VERTEX
  8
0
 10
88.074025
 20
55.015255
 42
-0.093584
  0
VERTEX
  8
0
 10
88.664388
 20
57.942079
 42
-0.239434
  0
VERTEX
  8
0
 10
90.319887
 20
59.379818
 42
-0.032905
  0
VERTEX
  8
0
 10
94.955497
 20
60.220045
 42
0.055148
  0
VERTEX
  8
0
 10
96.205170
 20
60.504363
 42
0.147465
  0
VERTEX
  8
0
 10
96.937260
 20
61.034460
 42
0.125077
  0
VERTEX
  8
0
 10
97.324138
 20
61.943409
 42
0.034692
  0
VERTEX
  8
0
 10
97.455497
 20
63.500000
 42
0.000000
  0
VERTEX
  8
0
 10
97.500000
 20
66.500000
 42
0.000000
  0
VERTEX
  8
0
 10
77.750000
 20
66.771140
 42
0.000000
  0
VERTEX
  8
0
 10
58.000000
 20
67.042280
 42
0.000000
  0
VERTEX
  8
0
 10
58.000000
 20
63.521140
 42
0.021450
  0
VERTEX
  8
0
 10
58.091671
 20
61.385234
 42
0.173277
  0
VERTEX
  8
0
 10
58.493428
 20
60.506750
 42
0.178502
  0
VERTEX
  8
0
 10
59.354525
 20
60.095631
 42
0.023042
  0
VERTEX
  8
0
 10
61.428571
 20
60.000000
 42
-0.074050
  0
VERTEX
  8
0
 10
64.433600
 20
59.552503
 42
-0.141006
  0
VERTEX
  8
0
 10
66.466262
 20
58.232867
 42
-0.126050
  0
VERTEX
  8
0
 10
67.626984
 20
55.913646
 42
-0.053364
  0
VERTEX
  8
0
 10
68.000000
 20
52.428571
 42
0.000000
  0
VERTEX
  8
0
 10
68.000000
 20
48.000000
 42
0.000000
  0
VERTEX
  8
0
 10
52.465557
 20
48.000000
 42
0.000000
  0
VERTEX
  8
0
 10
36.931114
 20
48.000000
 42
0.000000
  0
VERTEX
  8
0
 10
37.612953
 20
53.250000
 42
-0.023760
  0
VERTEX
  8
0
 10
38.283584
 20
57.006565
 42
-0.129423
  0
VERTEX
  8
0
 10
39.232360
 20
58.821956
 42
-0.163726
  0
VERTEX
  8
0
 10
40.831174
 20
59.710446
 42
-0.044514
  0
VERTEX
  8
0
 10
43.750000
 20
59.984687
 42
0.026422
  0
VERTEX
  8
0
 10
45.680311
 20
60.095886
 42
0.180477
  0
VERTEX
  8
0
 10
46.516763
 20
60.518132
 42
0.166379
  0
VERTEX
  8
0
 10
46.909099
 20
61.405089
 42
0.021685
  0
VERTEX
  8
0
 10
47.000000
 20
63.500000
 42
0.000000
  0
VERTEX
  8
0
 10
47.000000
 20
67.000000
 42
0.000000
  0
VERTEX
  8
0
 10
27.500000
 20
67.000000
 42
0.000000
  0
VERTEX
  8
0
 10
8.000000
 20
67.000000
 42
0.000000
  0
SEQEND
  0
POLYLINE
  8
0
 66
1
 70
1
  0
VERTEX
  8
0
 10
182.000000
 20
63.500000
 42
0.021767
  0
VERTEX
  8
0
 10
182.092311
 20
61.380553
 42
0.173726
  0
VERTEX
  8
0
 10
182.494898
 20
60.505208
 42
0.177762
  0
VERTEX
  8
0
 10
183.356784
 20
60.095379
 42
0.023006
  0
VERTEX
  8
0
 10
185.428571
 20
60.000000
 42
-0.096860
  0
VERTEX
  8
0
 10
189.040366
 20
59.293695
 42
-0.208680
  0
VERTEX
  8
0
 10
190.980580
 20
57.305186
 42
-0.082420
  0
VERTEX
  8
0
 10
191.829414
 20
53.056323
 42
-0.008179
  0
VERTEX
  8
0
 10
192.000000
 20
42.628571
 42
-0.006450
  0
VERTEX
  8
0
 10
191.873502
 20
32.822472
 42
-0.061352
  0
VERTEX
  8
0
 10
191.254865
 20
28.682972
 42
-0.180307
  0
VERTEX
  8
0
 10
189.848438
 20
26.744595
 42
-0.147642
  0
VERTEX
  8
0
 10
187.381787
 20
26.000000
 42
0.042581
  0
VERTEX
  8
0
 10
184.833809
 20
25.782615
 42
0.120992
  0
VERTEX
  8
0
 10
183.211467
 20
25.075497
 42
0.150878
  0
VERTEX
  8
0
 10
182.309387
 20
23.810446
 42
0.080159
  0
VERTEX
  8
0
 10
182.000000
 20
21.893011
 42
0.000000
  0
VERTEX
  8
0
 10
182.000000
 20
19.000000
 42
0.000000
  0
VERTEX
  8
0
 10
198.000000
 20
19.000000
 42
0.000000
  0
VERTEX
  8
0
 10
214.000000
 20
19.000000
 42
0.000000
  0
VERTEX
  8
0
 10
214.000000
 20
21.980948
 42
0.056109
  0
VERTEX
  8
0
 10
213.786116
 20
23.880930
 42
0.205537
  0
VERTEX
  8
0
 10
213.088381
 20
24.838645
 42
0.079640
  0
VERTEX
  8
0
 10
211.493078
 20
25.469914
 42
0.004441
  0
VERTEX
  8
0
 10
206.250000
 20
26.581798
 42
-0.164663
  0
VERTEX
  8
0
 10
204.971247
 20
27.325016
 42
-0.140217
  0
VERTEX
  8
0
 10
204.304612
 20
28.743623
 42
-0.038254
  0
VERTEX
  8
0
 10
204.054512
 20
31.706559
 42
-0.002532
  0
VERTEX
  8
0
 10
204.031601
 20
40.269052
 42
0.000000
  0
VERTEX
  8
0
 10
204.063202
 20
53.500000
 42
0.000000
  0
VERTEX
  8
0
 10
206.281601
 20
50.930120
 42
-0.011155
  0
VERTEX
  8
0
 10
207.675218
 20
49.240942
 42
-0.000942
  0
VERTEX
  8
0
 10
211.159789
 20
44.802857
 42
-0.001251
  0
VERTEX
  8
0
 10
215.293698
 20
39.489936
 42
-0.000967
  0
VERTEX
  8
0
 10
219.773000
 20
33.680120
 42
0.000000
  0
VERTEX
  8
0
 10
231.046001
 20
19.000000
 42
0.000000
  0
VERTEX
  8
0
 10
245.023000
 20
19.000000
 42
0.000000
  0
VERTEX
  8
0
 10
259.000000
 20
19.000000
 42
0.000000
  0
VERTEX
  8
0
 10
259.000000
 20
38.464816
 42
-0.001926
  0
VERTEX
  8
0
 10
259.046106
 20
50.432398
 42
-0.021596
  0
VERTEX
  8
0
 10
259.288139
 20
55.184245
 42
-0.060652
  0
VERTEX
  8
0
 10
259.833460
 20
57.678645
 42
-0.187919
  0
VERTEX
  8
0
 10
260.934259
 20
58.964816
 42
-0.049120
  0
VERTEX
  8
0
 10
261.892683
 20
59.362412
 42
-0.022735
  0
VERTEX
  8
0
 10
263.200890
 20
59.695915
 42
-0.022262
  0
VERTEX
  8
0
 10
264.618754
 20
59.924198
 42
-0.028787
  0
VERTEX
  8
0
 10
265.934259
 20
60.000000
 42
0.030389
  0
VERTEX
  8
0
 10
267.724599
 20
60.108915
 42
0.184533
  0
VERTEX
  8
0
 10
268.531018
 20
60.535412
 42
0.159788
  0
VERTEX
  8
0
 10
268.911341
 20
61.428832
 42
0.021393
  0
VERTEX
  8
0
 10
269.000000
 20
63.500000
 42
0.000000
  0
VERTEX
  8
0
 10
269.000000
 20
67.000000
 42
0.000000
  0
VERTEX
  8
0
 10
253.000000
 20
67.000000
 42
0.000000
  0
VERTEX
  8
0
 10
237.000000
 20
67.000000
 42
0.000000
  0
VERTEX
  8
0
 10
237.000000
 20
63.500000
 42
0.021617
  0
VERTEX
  8
0
 10
237.091041
 20
61.395159
 42
0.169311
  0
VERTEX
  8
0
 10
237.486348
 20
60.514441
 42
0.180162
  0
VERTEX
  8
0
 10
238.330357
 20
60.099466
 42
0.025121
  0
VERTEX
  8
0
 10
240.308870
 20
60.000000
 42
-0.073622
  0
VERTEX
  8
0
 10
244.132356
 20
59.433944
 42
-0.222031
  0
VERTEX
  8
0
 10
246.045554
 20
57.718573
 42
-0.097486
  0
VERTEX
  8
0
 10
246.818946
 20
54.063733
 42
-0.009101
  0
VERTEX
  8
0
 10
246.781671
 20
44.812889
 42
0.000000
  0
VERTEX
  8
0
 10
246.500000
 20
32.145263
 42
0.000000
  0
VERTEX
  8
0
 10
234.000000
 20
48.245116
 42
0.001049
  0
VERTEX
  8
0
 10
229.114544
 20
54.510352
 42
0.001532
  0
VERTEX
  8
0
 10
224.783705
 20
60.005595
 42
0.000736
  0
VERTEX
  8
0
 10
221.078351
 20
64.663560
 42
0.027418
  0
VERTEX
  8
0
 10
220.178571
 20
65.672484
 42
0.164995
  0
VERTEX
  8
0
 10
218.819839
 20
66.346770
 42
0.016625
  0
VERTEX
  8
0
 10
215.172414
 20
66.714065
 42
0.013444
  0
VERTEX
  8
0
 10
209.586165
 20
66.938911
 42
0.003335
  0
VERTEX
  8
0
 10
200.428571
 20
67.000000
 42
0.000000
  0
VERTEX
  8
0
 10
182.000000
 20
67.000000
 42
0.000000
  0
SEQEND
  0
POLYLINE
  8
0
 66
1
 70
1
  0
VERTEX
  8
0
 10
273.000000
 20
63.565978
 42
0.020659
  0
VERTEX
  8
0
 10
273.089062
 20
61.411371
 42
0.167556
  0
VERTEX
  8
0
 10
273.481353
 20
60.520150
 42
0.182596
  0
VERTEX
  8
0
 10
274.321886
 20
60.100664
 42
0.025428
  0
VERTEX
  8
0
 10
276.300000
 20
60.000000
 42
-0.104580
  0
VERTEX
  8
0
 10
279.496334
 20
59.324060
 42
-0.213490
  0
VERTEX
  8
0
 10
281.178064
 20
57.457390
 42
-0.072490
  0
VERTEX
  8
0
 10
281.872410
 20
53.361727
 42
-0.005802
  0
VERTEX
  8
0
 10
282.000000
 20
42.367388
 42
-0.002942
  0
VERTEX
  8
0
 10
281.933682
 20
31.098364
 42
-0.086343
  0
VERTEX
  8
0
 10
281.410342
 20
28.286731
 42
-0.219095
  0
VERTEX
  8
0
 10
279.911683
 20
26.794834
 42
-0.033209
  0
VERTEX
  8
0
 10
275.750000
 20
25.573893
 42
0.044605
  0
VERTEX
  8
0
 10
274.334999
 20
25.123552
 42
0.130799
  0
VERTEX
  8
0
 10
273.531957
 20
24.503649
 42
0.124943
  0
VERTEX
  8
0
 10
273.122524
 20
23.547748
 42
0.039041
  0
VERTEX
  8
0
 10
273.000000
 20
21.980948
 42
0.000000
  0
VERTEX
  8
0
 10
273.000000
 20
19.000000
 42
0.000000
  0
VERTEX
  8
0
 10
301.818499
 20
19.000000
 42
0.004166
  0
VERTEX
  8
0
 10
322.507797
 20
19.172378
 42
0.030378
  0
VERTEX
  8
0
 10
332.395736
 20
19.939244
 42
0.062288
  0
VERTEX
  8
0
 10
338.872982
 20
21.680063
 42
0.060057
  0
VERTEX
  8
0
 10
344.809192
 20
24.976739
 42
0.111366
  0
VERTEX
  8
0
 10
351.006869
 20
32.013706
 42
0.105525
  0
VERTEX
  8
0
 10
353.738654
 20
41.168807
 42
0.105570
  0
VERTEX
  8
0
 10
352.494346
 20
50.638204
 42
0.111555
  0
VERTEX
  8
0
 10
347.491773
 20
58.560859
 42
0.065623
  0
VERTEX
  8
0
 10
341.748965
 20
62.966026
 42
0.085176
  0
VERTEX
  8
0
 10
335.535397
 20
65.257712
 42
0.038566
  0
VERTEX
  8
0
 10
325.741519
 20
66.302794
 42
0.004287
  0
VERTEX
  8
0
 10
303.250000
 20
66.767020
 42
0.000000
  0
VERTEX
  8
0
 10
273.000000
 20
67.131956
 42
0.000000
  0
SEQEND
  0
POLYLINE
  8
0
 66
1
 70
1
  0
VERTEX
  8
0
 10
325.111167
 20
56.072579
 42
-0.108561
  0
VERTEX
  8
0
 10
327.483262
 20
54.200751
 42
-0.066372
  0
VERTEX
  8
0
 10
329.366539
 20
51.155841
 42
-0.058170
  0
VERTEX
  8
0
 10
330.588536
 20
47.276385
 42
-0.047271
  0
VERTEX
  8
0
 10
331.000000
 20
42.933954
 42
-0.072103
  0
VERTEX
  8
0
 10
329.945559
 20
35.659901
 42
-0.161888
  0
VERTEX
  8
0
 10
326.792743
 20
31.138373
 42
-0.125223
  0
VERTEX
  8
0
 10
320.913021
 20
28.709447
 42
-0.035665
  0
VERTEX
  8
0
 10
310.979764
 20
28.000000
 42
0.000000
  0
VERTEX
  8
0
 10
302.000000
 20
28.000000
 42
0.000000
  0
VERTEX
  8
0
 10
302.000000
 20
43.113419
 42
0.000000
  0
VERTEX
  8
0
 10
302.000000
 20
58.226839
 42
0.000000
  0
VERTEX
  8
0
 10
312.250000
 20
57.783256
 42
-0.010251
  0
VERTEX
  8
0
 10
316.365762
 20
57.520520
 42
-0.011997
  0
VERTEX
  8
0
 10
320.256093
 20
57.097767
 42
-0.010993
  0
VERTEX
  8
0
 10
323.513608
 20
56.591370
 42
-0.069004
  0
SEQEND
  0
POLYLINE
  8
0
 66
1
 70
1
  0
VERTEX
  8
0
 10
366.186642
 20
63.758189
 42
0.036673
  0
VERTEX
  8
0
 10
366.416082
 20
62.418953
 42
0.060807
  0
VERTEX
  8
0
 10
366.824092
 20
61.349443
 42
0.079694
  0
VERTEX
  8
0
 10
367.366557
 20
60.628358
 42
0.161311
  0
VERTEX
  8
0
 10
368.000000
 20
60.324780
 42
-0.008060
  0
VERTEX
  8
0
 10
372.743811
 20
59.640955
 42
-0.044559
  0
VERTEX
  8
0
 10
375.241753
 20
59.007528
 42
-0.102328
  0
VERTEX
  8
0
 10
376.534609
 20
58.230175
 42
-0.209355
  0
VERTEX
  8
0
 10
377.000000
 20
57.167405
 42
-0.135941
  0
VERTEX
  8
0
 10
376.471615
 20
55.259888
 42
-0.001396
  0
VERTEX
  8
0
 10
369.211236
 20
43.236389
 42
-0.003894
  0
VERTEX
  8
0
 10
362.347292
 20
32.136523
 42
-0.032790
  0
VERTEX
  8
0
 10
358.895816
 20
27.374465
 42
-0.080391
  0
VERTEX
  8
0
 10
358.292394
 20
26.847743
 42
-0.044210
  0
VERTEX
  8
0
 10
357.415811
 20
26.403749
 42
-0.042629
  0
VERTEX
  8
0
 10
356.422047
 20
26.101487
 42
-0.052564
  0
VERTEX
  8
0
 10
355.459343
 20
26.000000
 42
0.041268
  0
VERTEX
  8
0
 10
352.861610
 20
25.785230
 42
0.120576
  0
VERTEX
  8
0
 10
351.220576
 20
25.081778
 42
0.152340
  0
VERTEX
  8
0
 10
350.311784
 20
23.818118
 42
0.080454
  0
VERTEX
  8
0
 10
350.000000
 20
21.893011
 42
0.000000
  0
VERTEX
  8
0
 10
350.000000
 20
19.000000
 42
0.000000
  0
VERTEX
  8
0
 10
365.850914
 20
19.000000
 42
0.000000
  0
VERTEX
  8
0
 10
381.701828
 20
19.000000
 42
0.000000
  0
VERTEX
  8
0
 10
381.507438
 20
21.750000
 42
0.003406
  0
VERTEX
  8
0
 10
381.421538
 20
22.857857
 42
0.003933
  0
VERTEX
  8
0
 10
381.324171
 20
23.912500
 42
0.003528
  0
VERTEX
  8
0
 10
381.228392
 20
24.804357
 42
0.022931
  0
VERTEX
  8
0
 10
381.156524
 20
25.250000
 42
0.264333
  0
VERTEX
  8
0
 10
380.899028
 20
25.542057
 42
0.031467
  0
VERTEX
  8
0
 10
380.035190
 20
25.779688
 42
0.030933
  0
VERTEX
  8
0
 10
378.888802
 20
25.945553
 42
0.020464
  0
VERTEX
  8
0
 10
377.559017
 20
26.000000
 42
-0.045401
  0
VERTEX
  8
0
 10
374.906595
 20
26.241341
 42
-0.199408
  0
VERTEX
  8
0
 10
373.614594
 20
27.078854
 42
-0.237021
  0
VERTEX
  8
0
 10
373.423457
 20
28.469777
 42
-0.062870
  0
VERTEX
  8
0
 10
374.436857
 20
30.543976
 42
-0.107666
  0
VERTEX
  8
0
 10
375.893066
 20
31.973784
 42
-0.105056
  0
VERTEX
  8
0
 10
377.824807
 20
32.684184
 42
-0.033508
  0
VERTEX
  8
0
 10
381.366275
 20
32.954084
 42
-0.002268
  0
VERTEX
  8
0
 10
391.487869
 20
33.000000
 42
-0.002490
  0
VERTEX
  8
0
 10
401.090471
 20
32.952183
 42
-0.028739
  0
VERTEX
  8
0
 10
404.849634
 20
32.698349
 42
-0.085174
  0
VERTEX
  8
0
 10
406.837244
 20
32.094768
 42
-0.154881
  0
VERTEX
  8
0
 10
408.041820
 20
30.921859
 42
-0.081434
  0
VERTEX
  8
0
 10
408.748428
 20
28.851405
 42
-0.202151
  0
VERTEX
  8
0
 10
408.386505
 20
27.323233
 42
-0.164390
  0
VERTEX
  8
0
 10
406.943157
 20
26.307009
 42
-0.051383
  0
VERTEX
  8
0
 10
404.305826
 20
25.813693
 42
0.022231
  0
VERTEX
  8
0
 10
402.081638
 20
25.530386
 42
0.136354
  0
VERTEX
  8
0
 10
401.046675
 20
25.040381
 42
0.158536
  0
VERTEX
  8
0
 10
400.493744
 20
24.124447
 42
0.033149
  0
VERTEX
  8
0
 10
400.186642
 20
22.250000
 42
0.000000
  0
VERTEX
  8
0
 10
399.873283
 20
19.000000
 42
0.000000
  0
VERTEX
  8
0
 10
421.436642
 20
19.000000
 42
0.000000
  0
VERTEX
  8
0
 10
443.000000
 20
19.000000
 42
0.000000
  0
VERTEX
  8
0
 10
443.000000
 20
22.500000
 42
0.022424
  0
VERTEX
  8
0
 10
442.903069
 20
24.660252
 42
0.187178
  0
VERTEX
  8
0
 10
442.476737
 20
25.521283
 42
0.169221
  0
VERTEX
  8
0
 10
441.557740
 20
25.916023
 42
0.017612
  0
VERTEX
  8
0
 10
439.174314
 20
26.000000
 42
-0.107462
  0
VERTEX
  8
0
 10
435.843408
 20
26.724258
 42
-0.102972
  0
VERTEX
  8
0
 10
433.055075
 20
28.771948
 42
-0.033854
  0
VERTEX
  8
0
 10
429.397593
 20
33.441370
 42
-0.002438
  0
VERTEX
  8
0
 10
420.228988
 20
47.078651
 42
0.002172
  0
VERTEX
  8
0
 10
415.882147
 20
53.551526
 42
0.003066
  0
VERTEX
  8
0
 10
411.948694
 20
59.278282
 42
0.001779
  0
VERTEX
  8
0
 10
408.586253
 20
64.073464
 42
0.042601
  0
VERTEX
  8
0
 10
407.528492
 20
65.328651
 42
0.144172
  0
VERTEX
  8
0
 10
405.851909
 20
66.242455
 42
0.033927
  0
VERTEX
  8
0
 10
402.658556
 20
66.708199
 42
0.016862
  0
VERTEX
  8
0
 10
397.167832
 20
66.945980
 42
0.002390
  0
VERTEX
  8
0
 10
385.865213
 20
67.000000
 42
0.000000
  0
VERTEX
  8
0
 10
365.873283
 20
67.000000
 42
0.000000
  0
SEQEND
  0
POLYLINE
  8
0
 66
1
 70
1
  0
VERTEX
  8
0
 10
395.930274
 20
49.375305
 42
-0.006871
  0
VERTEX
  8
0
 10
397.492694
 20
46.805605
 42
-0.011133
  0
VERTEX
  8
0
 10
398.741582
 20
44.574393
 42
-0.004985
  0
VERTEX
  8
0
 10
399.723143
 20
42.679994
 42
-0.324048
  0
VERTEX
  8
0
 10
399.667869
 20
42.334536
 42
-0.192347
  0
VERTEX
  8
0
 10
399.293654
 20
42.173957
 42
-0.002842
  0
VERTEX
  8
0
 10
396.853255
 20
42.126097
 42
-0.007270
  0
VERTEX
  8
0
 10
393.989624
 20
42.127855
 42
-0.004679
  0
VERTEX
  8
0
 10
390.670476
 20
42.209231
 42
0.000000
  0
VERTEX
  8
0
 10
382.089157
 20
42.500000
 42
0.000000
  0
VERTEX
  8
0
 10
386.283492
 20
49.250000
 42
-0.006490
  0
VERTEX
  8
0
 10
387.938055
 20
51.837191
 42
-0.010121
  0
VERTEX
  8
0
 10
389.436500
 20
54.017187
 42
-0.004687
  0
VERTEX
  8
0
 10
390.748816
 20
55.810251
 42
-0.236681
  0
VERTEX
  8
0
 10
391.127216
 20
56.000000
 42
-0.235262
  0
VERTEX
  8
0
 10
391.505870
 20
55.811395
 42
-0.004808
  0
VERTEX
  8
0
 10
392.805987
 20
54.053996
 42
-0.010244
  0
VERTEX
  8
0
 10
394.291307
 20
51.914445
 42
-0.006579
  0
SEQEND
  0
ENDSEC
  0
EOF
